Coordinates
version=1
nRows=17
nColumns=24
inDegrees=yes

Units are S.I. units (second, meters, Newtons, ...)
Angles are in degrees.

endheader
time	pelvis_tilt	pelvis_list	pelvis_rotation	pelvis_tx	pelvis_ty	pelvis_tz	hip_flexion_r	hip_adduction_r	hip_rotation_r	knee_angle_r	ankle_angle_r	subtalar_angle_r	mtp_angle_r	hip_flexion_l	hip_adduction_l	hip_rotation_l	knee_angle_l	ankle_angle_l	subtalar_angle_l	mtp_angle_l	lumbar_extension	lumbar_bending	lumbar_rotation
      0.87500000	      0.00799229	      3.88659454	     -3.79005446	     -0.33921872	      1.02540591	      0.30737820	      5.89523751	     -0.32462220	     -1.42939044	    -13.56697243	      7.02289865	     -2.98132119	     10.68532810	     16.90681457	      1.92487477	     -9.39850143	    -59.94183119	      4.21430352	    -13.13514161	      4.04916213	     -3.05982401	     -3.37793447	      6.56652360
      0.87916667	     -0.01236339	      3.95681717	     -4.04250034	     -0.33423423	      1.02564934	      0.30788984	      5.50671990	     -0.40684028	     -1.36759062	    -13.30105067	      7.07822599	     -2.75118396	     10.72350408	     17.36433250	      1.89866975	     -9.65972234	    -59.27568133	      4.36970538	    -12.83315129	      4.06981031	     -3.06528280	     -3.45412095	      6.82295919
      0.88333333	      0.00891010	      3.99204772	     -4.26316807	     -0.32927366	      1.02590922	      0.30836323	      5.05579454	     -0.45692489	     -1.32753288	    -13.01144722	      7.21501850	     -2.50804065	     10.78355611	     17.77180647	      1.84522817	     -9.87365968	    -58.59255643	      4.56174826	    -12.51033600	      4.10412422	     -3.13500058	     -3.50029767	      7.24941926
      0.88750000	      0.01204168	      4.03266080	     -4.49052852	     -0.32431980	      1.02609251	      0.30883453	      4.63507425	     -0.51335392	     -1.27536190	    -12.73837371	      7.31188246	     -2.28629245	     10.84047504	     18.18398950	      1.79371291	    -10.09700732	    -57.86633314	      4.71029651	    -12.22798886	      4.13907211	     -3.18058138	     -3.54930813	      7.57777267
      0.89166667	      0.01242812	      4.06882849	     -4.70927019	     -0.31936630	      1.02624874	      0.30928099	      4.21614677	     -0.56715141	     -1.22420376	    -12.46489764	      7.40887257	     -2.07448114	     10.89833285	     18.58394406	      1.74233943	    -10.30530201	    -57.09809019	      4.83469713	    -11.96954329	      4.17717633	     -3.22433043	     -3.59255287	      7.89899794
      0.89583333	      0.00109503	      4.10129182	     -4.92446026	     -0.31442145	      1.02633316	      0.30971871	      3.81626675	     -0.61773058	     -1.17093519	    -12.20336995	      7.47507758	     -1.88452726	     10.93539145	     18.98322903	      1.68501514	    -10.51130028	    -56.29352807	      4.92559666	    -11.73075538	      4.20357414	     -3.25047316	     -3.62481393	      8.12209245
      0.90000000	      0.01263474	      4.11225729	     -5.11429261	     -0.30947830	      1.02640361	      0.31012087	      3.37927541	     -0.64904680	     -1.13295555	    -11.92883393	      7.61222955	     -1.68236749	     10.99201654	     19.34941871	      1.61486456	    -10.68179676	    -55.47017152	      5.03897830	    -11.49020419	      4.24646826	     -3.32011452	     -3.64800963	      8.49036668
      0.90416667	     -0.00759057	      4.12841000	     -5.30303667	     -0.30453595	      1.02638810	      0.31051049	      2.98597697	     -0.68483481	     -1.08852035	    -11.67118632	      7.72146154	     -1.50302453	     11.04537570	     19.73343335	      1.55014910	    -10.84952744	    -54.60257267	      5.10825705	    -11.27972414	      4.28915329	     -3.34557031	     -3.66987843	      8.77094453
      0.90833333	     -0.04563942	      4.12414246	     -5.46438696	     -0.29959573	      1.02631089	      0.31086741	      2.59609657	     -0.69609378	     -1.03771494	    -11.38800407	      7.79620744	     -1.34939235	     11.06752739	     20.12930168	      1.47066545	    -10.98173388	    -53.71360211	      5.13287861	    -11.10734050	      4.30701386	     -3.36083294	     -3.67833452	      8.90529151
      0.91250000	     -0.02416233	      4.12380032	     -5.64337964	     -0.29466654	      1.02627642	      0.31121816	      2.16674697	     -0.72377360	     -1.00602119	    -11.15376686	      7.90402204	     -1.19120078	     11.10105494	     20.43284124	      1.39926489	    -11.13001930	    -52.76644572	      5.17676993	    -10.87285377	      4.33800916	     -3.43191706	     -3.67268814	      9.19534637
      0.91666667	     -0.04231312	      4.11157061	     -5.78589375	     -0.28972262	      1.02614300	      0.31152229	      1.76236081	     -0.73413992	     -0.97703375	    -10.89579159	      8.04875016	     -1.03382744	     11.14605772	     20.77469914	      1.32825335	    -11.22629845	    -51.80350690	      5.19896088	    -10.71473407	      4.38318541	     -3.47366025	     -3.66555855	      9.49956753
      0.92083333	     -0.07310205	      4.09512386	     -5.91973626	     -0.28477567	      1.02596905	      0.31180896	      1.37425556	     -0.73978231	     -0.94820562	    -10.64369589	      8.13370063	     -0.90891023	     11.16985468	     21.11180862	      1.25478553	    -11.31416298	    -50.79631515	      5.16256570	    -10.54057158	      4.40855201	     -3.49451081	     -3.65303851	      9.64410519
      0.92500000	     -0.06603410	      4.06974825	     -6.04243906	     -0.27984008	      1.02579531	      0.31207292	      0.94304804	     -0.74168470	     -0.92669851	    -10.39154030	      8.27823382	     -0.77718089	     11.20384911	     21.39275029	      1.18472507	    -11.38065364	    -49.75728360	      5.14248179	    -10.38431645	      4.45039469	     -3.56873127	     -3.63419935	      9.88798621
      0.92916667	     -0.11909463	      4.04678982	     -6.14946371	     -0.27488816	      1.02550155	      0.31230710	      0.58456714	     -0.74047195	     -0.90745759	    -10.15951920	      8.37900845	     -0.66873461	     11.22159993	     21.72392208	      1.11901784	    -11.42656616	    -48.68009331	      5.06061993	    -10.21365209	      4.47339241	     -3.56745525	     -3.61203135	     10.01098189
      0.93333333	     -0.14897727	      4.02023134	     -6.24718454	     -0.26993704	      1.02521585	      0.31252274	      0.19894120	     -0.73900067	     -0.89156359	     -9.92606334	      8.50626745	     -0.56221094	     11.23916577	     22.01082063	      1.05984211	    -11.45689037	    -47.56097504	      4.96869830	    -10.05380781	      4.49981173	     -3.59701991	     -3.58911771	     10.17285418
      0.93750000	     -0.17266180	      3.98836614	     -6.33250352	     -0.26497560	      1.02490231	      0.31271257	     -0.19345162	     -0.73396996	     -0.88289168	     -9.69864352	      8.64056407	     -0.45629033	     11.25538903	     22.27315973	      1.00536672	    -11.46698500	    -46.40468008	      4.85641461	     -9.89730110	      4.52908282	     -3.63587607	     -3.56454535	     10.33159708
      0.94166667	     -0.21255274	      3.94939719	     -6.40347368	     -0.26000731	      1.02452725	      0.31287174	     -0.56791279	     -0.72015715	     -0.87896744	     -9.47684129	      8.77795964	     -0.36253967	     11.26976396	     22.53717748	      0.95001712	    -11.45709505	    -45.21471916	      4.72460818	     -9.73966632	      4.56075265	     -3.65736881	     -3.52706427	     10.47483793
